<svg width="1145" height="155" viewBox="0 0 1145 155" fill="none" xmlns="http://www.w3.org/2000/svg">
<path d="M11.2727 124V30.9091H43.8182C50.303 30.9091 55.6515 32.0303 59.8636 34.2727C64.0758 36.4848 67.2121 39.4697 69.2727 43.2273C71.3333 46.9545 72.3636 51.0909 72.3636 55.6364C72.3636 59.6364 71.6515 62.9394 70.2273 65.5455C68.8333 68.1515 66.9849 70.2121 64.6818 71.7273C62.4091 73.2424 59.9394 74.3636 57.2727 75.0909V76C60.1212 76.1818 62.9849 77.1818 65.8636 79C68.7424 80.8182 71.1515 83.4242 73.0909 86.8182C75.0303 90.2121 76 94.3636 76 99.2727C76 103.939 74.9394 108.136 72.8182 111.864C70.697 115.591 67.3485 118.545 62.7727 120.727C58.197 122.909 52.2424 124 44.9091 124H11.2727ZM22.5455 114H44.9091C52.2727 114 57.5 112.576 60.5909 109.727C63.7121 106.848 65.2727 103.364 65.2727 99.2727C65.2727 96.1212 64.4697 93.2121 62.8636 90.5455C61.2576 87.8485 58.9697 85.697 56 84.0909C53.0303 82.4545 49.5152 81.6364 45.4545 81.6364H22.5455V114ZM22.5455 71.8182H43.4545C46.8485 71.8182 49.9091 71.1515 52.6364 69.8182C55.3939 68.4848 57.5758 66.6061 59.1818 64.1818C60.8182 61.7576 61.6364 58.9091 61.6364 55.6364C61.6364 51.5455 60.2121 48.0758 57.3636 45.2273C54.5152 42.3485 50 40.9091 43.8182 40.9091H22.5455V71.8182ZM94.5227 30.9091H107.977L139.614 108.182H140.705L172.341 30.9091H185.795V124H175.25V53.2727H174.341L145.25 124H135.068L105.977 53.2727H105.068V124H94.5227V30.9091ZM208.398 124V30.9091H239.852C247.155 30.9091 253.125 32.2273 257.761 34.8636C262.428 37.4697 265.883 41 268.125 45.4545C270.367 49.9091 271.489 54.8788 271.489 60.3636C271.489 65.8485 270.367 70.8333 268.125 75.3182C265.913 79.803 262.489 83.3788 257.852 86.0455C253.216 88.6818 247.277 90 240.034 90H217.489V80H239.67C244.67 80 248.686 79.1364 251.716 77.4091C254.746 75.6818 256.943 73.3485 258.307 70.4091C259.701 67.4394 260.398 64.0909 260.398 60.3636C260.398 56.6364 259.701 53.303 258.307 50.3636C256.943 47.4242 254.731 45.1212 251.67 43.4545C248.61 41.7576 244.549 40.9091 239.489 40.9091H219.67V124H208.398Z" fill="black" fill-opacity="0.2"/>
<path d="M11.2727 124H9.27273V126H11.2727V124ZM11.2727 30.9091V28.9091H9.27273V30.9091H11.2727ZM59.8636 34.2727L58.9238 36.0382L58.9337 36.0434L59.8636 34.2727ZM69.2727 43.2273L67.5191 44.1889L67.5224 44.1949L69.2727 43.2273ZM70.2273 65.5455L68.4723 64.5863L68.4679 64.5942L68.4637 64.6021L70.2273 65.5455ZM64.6818 71.7273L63.5826 70.0564L63.5724 70.0632L64.6818 71.7273ZM57.2727 75.0909L56.7465 73.1614L55.2727 73.5633V75.0909H57.2727ZM57.2727 76H55.2727V77.8764L57.1453 77.9959L57.2727 76ZM65.8636 79L64.7957 80.691L64.7957 80.691L65.8636 79ZM72.8182 111.864L74.5564 112.853L74.5564 112.853L72.8182 111.864ZM62.7727 120.727L61.9119 118.922L61.9119 118.922L62.7727 120.727ZM22.5455 114H20.5455V116H22.5455V114ZM60.5909 109.727L61.9463 111.198L61.9469 111.197L60.5909 109.727ZM62.8636 90.5455L61.1452 91.5688L61.1504 91.5773L62.8636 90.5455ZM56 84.0909L55.0348 85.8426L55.0417 85.8464L55.0486 85.8501L56 84.0909ZM22.5455 81.6364V79.6364H20.5455V81.6364H22.5455ZM22.5455 71.8182H20.5455V73.8182H22.5455V71.8182ZM52.6364 69.8182L51.7658 68.0176L51.7579 68.0214L52.6364 69.8182ZM59.1818 64.1818L57.5241 63.0629L57.5193 63.07L57.5145 63.0772L59.1818 64.1818ZM57.3636 45.2273L55.9419 46.634L55.9494 46.6415L57.3636 45.2273ZM22.5455 40.9091V38.9091H20.5455V40.9091H22.5455ZM13.2727 124V30.9091H9.27273V124H13.2727ZM11.2727 32.9091H43.8182V28.9091H11.2727V32.9091ZM43.8182 32.9091C50.0875 32.9091 55.0861 33.995 58.9238 36.0381L60.8035 32.5073C56.217 30.0656 50.5186 28.9091 43.8182 28.9091V32.9091ZM58.9337 36.0434C62.8375 38.0936 65.6681 40.8136 67.5191 44.1889L71.0264 42.2656C68.7562 38.1258 65.314 34.8761 60.7936 32.5021L58.9337 36.0434ZM67.5224 44.1949C69.4082 47.6061 70.3636 51.4059 70.3636 55.6364H74.3636C74.3636 50.7759 73.2584 46.303 71.0231 42.2596L67.5224 44.1949ZM70.3636 55.6364C70.3636 59.4127 69.6896 62.3588 68.4723 64.5863L71.9823 66.5046C73.6134 63.52 74.3636 59.86 74.3636 55.6364H70.3636ZM68.4637 64.6021C67.2154 66.9359 65.587 68.7377 63.5826 70.0564L65.7811 73.3981C68.3827 71.6865 70.4513 69.3671 71.9908 66.4888L68.4637 64.6021ZM63.5724 70.0632C61.4807 71.4576 59.2083 72.49 56.7465 73.1614L57.799 77.0204C60.6705 76.2373 63.3375 75.0272 65.7912 73.3914L63.5724 70.0632ZM55.2727 75.0909V76H59.2727V75.0909H55.2727ZM57.1453 77.9959C59.6008 78.1527 62.1454 79.0171 64.7957 80.691L66.9316 77.309C63.8243 75.3465 60.6416 74.211 57.4001 74.0041L57.1453 77.9959ZM64.7957 80.691C67.3593 82.3101 69.5531 84.6582 71.3544 87.8105L74.8274 85.8259C72.7499 82.1903 70.1256 79.3262 66.9316 77.309L64.7957 80.691ZM71.3544 87.8105C73.0823 90.8342 74 94.6239 74 99.2727H78C78 94.1034 76.9783 89.5901 74.8274 85.8259L71.3544 87.8105ZM74 99.2727C74 103.624 73.0147 107.475 71.08 110.874L74.5564 112.853C76.8641 108.798 78 104.255 78 99.2727H74ZM71.08 110.874C69.1956 114.185 66.1875 116.883 61.9119 118.922L63.6335 122.533C68.5095 120.208 72.1983 116.996 74.5564 112.853L71.08 110.874ZM61.9119 118.922C57.6976 120.931 52.0677 122 44.9091 122V126C52.4172 126 58.6964 124.887 63.6335 122.533L61.9119 118.922ZM44.9091 122H11.2727V126H44.9091V122ZM22.5455 116H44.9091V112H22.5455V116ZM44.9091 116C52.4298 116 58.2931 114.565 61.9463 111.198L59.2355 108.257C56.7069 110.587 52.1156 112 44.9091 112V116ZM61.9469 111.197C65.461 107.956 67.2727 103.946 67.2727 99.2727H63.2727C63.2727 102.782 61.9632 105.741 59.2349 108.257L61.9469 111.197ZM67.2727 99.2727C67.2727 95.7623 66.373 92.4958 64.5769 89.5136L61.1504 91.5773C62.5664 93.9284 63.2727 96.4801 63.2727 99.2727H67.2727ZM64.582 89.5221C62.7774 86.4918 60.2136 84.0959 56.9514 82.3317L55.0486 85.8501C57.7258 87.298 59.7377 89.2052 61.1453 91.5688L64.582 89.5221ZM56.9652 82.3392C53.6466 80.5106 49.7862 79.6364 45.4545 79.6364V83.6364C49.2442 83.6364 52.414 84.3985 55.0348 85.8426L56.9652 82.3392ZM45.4545 79.6364H22.5455V83.6364H45.4545V79.6364ZM20.5455 81.6364V114H24.5455V81.6364H20.5455ZM22.5455 73.8182H43.4545V69.8182H22.5455V73.8182ZM43.4545 73.8182C47.1167 73.8182 50.4832 73.0971 53.5148 71.6149L51.7579 68.0214C49.335 69.206 46.5803 69.8182 43.4545 69.8182V73.8182ZM53.507 71.6187C56.5698 70.1378 59.034 68.0261 60.8491 65.2864L57.5145 63.0772C56.1175 65.186 54.2181 66.8319 51.7658 68.0176L53.507 71.6187ZM60.8395 65.3008C62.725 62.5074 63.6364 59.2586 63.6364 55.6364H59.6364C59.6364 58.5595 58.9114 61.0077 57.5241 63.0629L60.8395 65.3008ZM63.6364 55.6364C63.6364 51.0243 62.0079 47.0431 58.7779 43.8131L55.9494 46.6415C58.4163 49.1084 59.6364 52.0666 59.6364 55.6364H63.6364ZM58.7853 43.8206C55.4034 40.4027 50.2578 38.9091 43.8182 38.9091V42.9091C49.7423 42.9091 53.6269 44.2943 55.942 46.634L58.7853 43.8206ZM43.8182 38.9091H22.5455V42.9091H43.8182V38.9091ZM20.5455 40.9091V71.8182H24.5455V40.9091H20.5455ZM94.5227 30.9091V28.9091H92.5227V30.9091H94.5227ZM107.977 30.9091L109.828 30.1513L109.32 28.9091H107.977V30.9091ZM139.614 108.182L137.763 108.94L138.271 110.182H139.614V108.182ZM140.705 108.182V110.182H142.047L142.555 108.94L140.705 108.182ZM172.341 30.9091V28.9091H170.999L170.49 30.1513L172.341 30.9091ZM185.795 30.9091H187.795V28.9091H185.795V30.9091ZM185.795 124V126H187.795V124H185.795ZM175.25 124H173.25V126H175.25V124ZM175.25 53.2727H177.25V51.2727H175.25V53.2727ZM174.341 53.2727V51.2727H173.001L172.491 52.5119L174.341 53.2727ZM145.25 124V126H146.59L147.1 124.761L145.25 124ZM135.068 124L133.219 124.761L133.728 126H135.068V124ZM105.977 53.2727L107.827 52.5119L107.317 51.2727H105.977V53.2727ZM105.068 53.2727V51.2727H103.068V53.2727H105.068ZM105.068 124V126H107.068V124H105.068ZM94.5227 124H92.5227V126H94.5227V124ZM94.5227 32.9091H107.977V28.9091H94.5227V32.9091ZM106.126 31.6669L137.763 108.94L141.465 107.424L109.828 30.1513L106.126 31.6669ZM139.614 110.182H140.705V106.182H139.614V110.182ZM142.555 108.94L174.192 31.6669L170.49 30.1513L138.854 107.424L142.555 108.94ZM172.341 32.9091H185.795V28.9091H172.341V32.9091ZM183.795 30.9091V124H187.795V30.9091H183.795ZM185.795 122H175.25V126H185.795V122ZM177.25 124V53.2727H173.25V124H177.25ZM175.25 51.2727H174.341V55.2727H175.25V51.2727ZM172.491 52.5119L143.4 123.239L147.1 124.761L176.191 54.0335L172.491 52.5119ZM145.25 122H135.068V126H145.25V122ZM136.918 123.239L107.827 52.5119L104.128 54.0335L133.219 124.761L136.918 123.239ZM105.977 51.2727H105.068V55.2727H105.977V51.2727ZM103.068 53.2727V124H107.068V53.2727H103.068ZM105.068 122H94.5227V126H105.068V122ZM96.5227 124V30.9091H92.5227V124H96.5227ZM208.398 124H206.398V126H208.398V124ZM208.398 30.9091V28.9091H206.398V30.9091H208.398ZM257.761 34.8636L256.773 36.6022L256.779 36.606L256.786 36.6098L257.761 34.8636ZM268.125 45.4545L266.339 46.3538L266.339 46.3538L268.125 45.4545ZM268.125 75.3182L266.336 74.4237L266.331 74.4335L268.125 75.3182ZM257.852 86.0455L258.841 87.7841L258.849 87.7791L257.852 86.0455ZM217.489 90H215.489V92H217.489V90ZM217.489 80V78H215.489V80H217.489ZM251.716 77.4091L250.726 75.6715L250.726 75.6715L251.716 77.4091ZM258.307 70.4091L256.496 69.5593L256.493 69.5674L258.307 70.4091ZM258.307 50.3636L256.493 51.2053L256.496 51.213L256.5 51.2206L258.307 50.3636ZM251.67 43.4545L250.701 45.2037L250.707 45.2074L250.714 45.211L251.67 43.4545ZM219.67 40.9091V38.9091H217.67V40.9091H219.67ZM219.67 124V126H221.67V124H219.67ZM210.398 124V30.9091H206.398V124H210.398ZM208.398 32.9091H239.852V28.9091H208.398V32.9091ZM239.852 32.9091C246.931 32.9091 252.529 34.189 256.773 36.6022L258.75 33.1251C253.721 30.2656 247.379 28.9091 239.852 28.9091V32.9091ZM256.786 36.6098C261.13 39.0357 264.289 42.2823 266.339 46.3538L269.911 44.5553C267.476 39.7177 263.726 35.9037 258.736 33.1175L256.786 36.6098ZM266.339 46.3538C268.427 50.5024 269.489 55.1594 269.489 60.3636H273.489C273.489 54.5981 272.308 49.3158 269.911 44.5553L266.339 46.3538ZM269.489 60.3636C269.489 65.5676 268.427 70.242 266.336 74.4238L269.914 76.2126C272.308 71.4247 273.489 66.1293 273.489 60.3636H269.489ZM266.331 74.4335C264.307 78.5375 261.173 81.8284 256.855 84.3118L258.849 87.7791C263.804 84.9292 267.519 81.0686 269.919 76.2029L266.331 74.4335ZM256.864 84.3069C252.617 86.7214 247.049 88 240.034 88V92C247.504 92 253.814 90.6423 258.841 87.784L256.864 84.3069ZM240.034 88H217.489V92H240.034V88ZM219.489 90V80H215.489V90H219.489ZM217.489 82H239.67V78H217.489V82ZM239.67 82C244.876 82 249.271 81.1046 252.706 79.1466L250.726 75.6715C248.1 77.1681 244.465 78 239.67 78V82ZM252.706 79.1466C256.069 77.2302 258.569 74.5964 260.121 71.2508L256.493 69.5674C255.317 72.1005 253.424 74.1334 250.726 75.6715L252.706 79.1466ZM260.117 71.2589C261.652 67.9893 262.398 64.3446 262.398 60.3636H258.398C258.398 63.8372 257.749 66.8895 256.496 69.5593L260.117 71.2589ZM262.398 60.3636C262.398 56.3831 261.652 52.7504 260.114 49.5067L256.5 51.2206C257.749 53.8557 258.398 56.8896 258.398 60.3636H262.398ZM260.121 49.522C258.563 46.1635 256.034 43.5534 252.627 41.6981L250.714 45.211C253.428 46.689 255.323 48.685 256.493 51.2053L260.121 49.522ZM252.64 41.7054C249.18 39.7867 244.747 38.9091 239.489 38.9091V42.9091C244.352 42.9091 248.04 43.7284 250.701 45.2037L252.64 41.7054ZM239.489 38.9091H219.67V42.9091H239.489V38.9091ZM217.67 40.9091V124H221.67V40.9091H217.67ZM219.67 122H208.398V126H219.67V122Z" fill="black"/>
<path d="M303.455 113V43.1818H327.864C332.727 43.1818 336.739 44.0227 339.898 45.7045C343.057 47.3636 345.409 49.6023 346.955 52.4205C348.5 55.2159 349.273 58.3182 349.273 61.7273C349.273 64.7273 348.739 67.2045 347.67 69.1591C346.625 71.1136 345.239 72.6591 343.511 73.7955C341.807 74.9318 339.955 75.7727 337.955 76.3182V77C340.091 77.1364 342.239 77.8864 344.398 79.25C346.557 80.6136 348.364 82.5682 349.818 85.1136C351.273 87.6591 352 90.7727 352 94.4545C352 97.9545 351.205 101.102 349.614 103.898C348.023 106.693 345.511 108.909 342.08 110.545C338.648 112.182 334.182 113 328.682 113H303.455ZM311.909 105.5H328.682C334.205 105.5 338.125 104.432 340.443 102.295C342.784 100.136 343.955 97.5227 343.955 94.4545C343.955 92.0909 343.352 89.9091 342.148 87.9091C340.943 85.8864 339.227 84.2727 337 83.0682C334.773 81.8409 332.136 81.2273 329.091 81.2273H311.909V105.5ZM311.909 73.8636H327.591C330.136 73.8636 332.432 73.3636 334.477 72.3636C336.545 71.3636 338.182 69.9545 339.386 68.1364C340.614 66.3182 341.227 64.1818 341.227 61.7273C341.227 58.6591 340.159 56.0568 338.023 53.9205C335.886 51.7614 332.5 50.6818 327.864 50.6818H311.909V73.8636ZM372.847 43.1818V113H364.801V43.1818H372.847ZM387.582 113V60.6364H395.628V113H387.582ZM391.673 51.9091C390.105 51.9091 388.753 51.375 387.616 50.3068C386.503 49.2386 385.946 47.9545 385.946 46.4545C385.946 44.9545 386.503 43.6705 387.616 42.6023C388.753 41.5341 390.105 41 391.673 41C393.241 41 394.582 41.5341 395.696 42.6023C396.832 43.6705 397.401 44.9545 397.401 46.4545C397.401 47.9545 396.832 49.2386 395.696 50.3068C394.582 51.375 393.241 51.9091 391.673 51.9091ZM418.409 81.5V113H410.364V60.6364H418.136V68.8182H418.818C420.045 66.1591 421.909 64.0227 424.409 62.4091C426.909 60.7727 430.136 59.9545 434.091 59.9545C437.636 59.9545 440.739 60.6818 443.398 62.1364C446.057 63.5682 448.125 65.75 449.602 68.6818C451.08 71.5909 451.818 75.2727 451.818 79.7273V113H443.773V80.2727C443.773 76.1591 442.705 72.9545 440.568 70.6591C438.432 68.3409 435.5 67.1818 431.773 67.1818C429.205 67.1818 426.909 67.7386 424.886 68.8523C422.886 69.9659 421.307 71.5909 420.148 73.7273C418.989 75.8636 418.409 78.4545 418.409 81.5ZM486.293 114.091C481.929 114.091 478.077 112.989 474.736 110.784C471.395 108.557 468.781 105.42 466.895 101.375C465.009 97.3068 464.065 92.5 464.065 86.9545C464.065 81.4545 465.009 76.6818 466.895 72.6364C468.781 68.5909 471.406 65.4659 474.77 63.2614C478.134 61.0568 482.02 59.9545 486.429 59.9545C489.838 59.9545 492.531 60.5227 494.509 61.6591C496.509 62.7727 498.031 64.0455 499.077 65.4773C500.145 66.8864 500.974 68.0455 501.565 68.9545H502.247V43.1818H510.293V113H502.52V104.955H501.565C500.974 105.909 500.134 107.114 499.043 108.568C497.952 110 496.395 111.284 494.372 112.42C492.349 113.534 489.656 114.091 486.293 114.091ZM487.384 106.864C490.611 106.864 493.338 106.023 495.565 104.341C497.793 102.636 499.486 100.284 500.645 97.2841C501.804 94.2614 502.384 90.7727 502.384 86.8182C502.384 82.9091 501.815 79.4886 500.679 76.5568C499.543 73.6023 497.861 71.3068 495.634 69.6705C493.406 68.0114 490.656 67.1818 487.384 67.1818C483.974 67.1818 481.134 68.0568 478.861 69.8068C476.611 71.5341 474.918 73.8864 473.781 76.8636C472.668 79.8182 472.111 83.1364 472.111 86.8182C472.111 90.5455 472.679 93.9318 473.815 96.9773C474.974 100 476.679 102.409 478.929 104.205C481.202 105.977 484.02 106.864 487.384 106.864ZM526.145 113V60.6364H533.918V68.8182H534.599C535.69 66.0227 537.452 63.8523 539.884 62.3068C542.315 60.7386 545.236 59.9545 548.645 59.9545C552.099 59.9545 554.974 60.7386 557.27 62.3068C559.588 63.8523 561.395 66.0227 562.69 68.8182H563.236C564.577 66.1136 566.588 63.9659 569.27 62.375C571.952 60.7614 575.168 59.9545 578.918 59.9545C583.599 59.9545 587.429 61.4205 590.406 64.3523C593.384 67.2614 594.872 71.7955 594.872 77.9545V113H586.827V77.9545C586.827 74.0909 585.77 71.3295 583.656 69.6705C581.543 68.0114 579.054 67.1818 576.19 67.1818C572.509 67.1818 569.656 68.2955 567.634 70.5227C565.611 72.7273 564.599 75.5227 564.599 78.9091V113H556.418V77.1364C556.418 74.1591 555.452 71.7614 553.52 69.9432C551.588 68.1023 549.099 67.1818 546.054 67.1818C543.963 67.1818 542.009 67.7386 540.19 68.8523C538.395 69.9659 536.94 71.5114 535.827 73.4886C534.736 75.4432 534.19 77.7045 534.19 80.2727V113H526.145ZM624.991 114.227C621.673 114.227 618.662 113.602 615.957 112.352C613.253 111.08 611.105 109.25 609.514 106.864C607.923 104.455 607.128 101.545 607.128 98.1364C607.128 95.1364 607.719 92.7045 608.901 90.8409C610.082 88.9545 611.662 87.4773 613.639 86.4091C615.616 85.3409 617.798 84.5455 620.185 84.0227C622.594 83.4773 625.014 83.0455 627.446 82.7273C630.628 82.3182 633.207 82.0114 635.185 81.8068C637.185 81.5795 638.639 81.2045 639.548 80.6818C640.48 80.1591 640.946 79.25 640.946 77.9545V77.6818C640.946 74.3182 640.026 71.7045 638.185 69.8409C636.366 67.9773 633.605 67.0455 629.901 67.0455C626.06 67.0455 623.048 67.8864 620.866 69.5682C618.685 71.25 617.151 73.0455 616.264 74.9545L608.628 72.2273C609.991 69.0455 611.81 66.5682 614.082 64.7955C616.378 63 618.878 61.75 621.582 61.0455C624.31 60.3182 626.991 59.9545 629.628 59.9545C631.31 59.9545 633.241 60.1591 635.423 60.5682C637.628 60.9545 639.753 61.7614 641.798 62.9886C643.866 64.2159 645.582 66.0682 646.946 68.5455C648.31 71.0227 648.991 74.3409 648.991 78.5V113H640.946V105.909H640.537C639.991 107.045 639.082 108.261 637.81 109.557C636.537 110.852 634.844 111.955 632.73 112.864C630.616 113.773 628.037 114.227 624.991 114.227ZM626.219 107C629.401 107 632.082 106.375 634.264 105.125C636.469 103.875 638.128 102.261 639.241 100.284C640.378 98.3068 640.946 96.2273 640.946 94.0455V86.6818C640.605 87.0909 639.855 87.4659 638.696 87.8068C637.56 88.125 636.241 88.4091 634.741 88.6591C633.264 88.8864 631.821 89.0909 630.412 89.2727C629.026 89.4318 627.901 89.5682 627.037 89.6818C624.946 89.9545 622.991 90.3977 621.173 91.0114C619.378 91.6023 617.923 92.5 616.81 93.7045C615.719 94.8864 615.173 96.5 615.173 98.5455C615.173 101.341 616.207 103.455 618.276 104.886C620.366 106.295 623.014 107 626.219 107ZM671.722 81.5V113H663.676V60.6364H671.449V68.8182H672.131C673.358 66.1591 675.222 64.0227 677.722 62.4091C680.222 60.7727 683.449 59.9545 687.403 59.9545C690.949 59.9545 694.051 60.6818 696.71 62.1364C699.369 63.5682 701.438 65.75 702.915 68.6818C704.392 71.5909 705.131 75.2727 705.131 79.7273V113H697.085V80.2727C697.085 76.1591 696.017 72.9545 693.881 70.6591C691.744 68.3409 688.813 67.1818 685.085 67.1818C682.517 67.1818 680.222 67.7386 678.199 68.8523C676.199 69.9659 674.619 71.5909 673.46 73.7273C672.301 75.8636 671.722 78.4545 671.722 81.5ZM747.923 113V43.1818H771.514C776.991 43.1818 781.469 44.1705 784.946 46.1477C788.446 48.1023 791.037 50.75 792.719 54.0909C794.401 57.4318 795.241 61.1591 795.241 65.2727C795.241 69.3864 794.401 73.125 792.719 76.4886C791.06 79.8523 788.491 82.5341 785.014 84.5341C781.537 86.5114 777.082 87.5 771.651 87.5H754.741V80H771.378C775.128 80 778.139 79.3523 780.412 78.0568C782.685 76.7614 784.332 75.0114 785.355 72.8068C786.401 70.5795 786.923 68.0682 786.923 65.2727C786.923 62.4773 786.401 59.9773 785.355 57.7727C784.332 55.5682 782.673 53.8409 780.378 52.5909C778.082 51.3182 775.037 50.6818 771.241 50.6818H756.378V113H747.923ZM807.77 113V60.6364H815.543V68.5455H816.088C817.043 65.9545 818.77 63.8523 821.27 62.2386C823.77 60.625 826.588 59.8182 829.724 59.8182C830.315 59.8182 831.054 59.8295 831.94 59.8523C832.827 59.875 833.497 59.9091 833.952 59.9545V68.1364C833.679 68.0682 833.054 67.9659 832.077 67.8295C831.122 67.6705 830.111 67.5909 829.043 67.5909C826.497 67.5909 824.224 68.125 822.224 69.1932C820.247 70.2386 818.679 71.6932 817.52 73.5568C816.384 75.3977 815.815 77.5 815.815 79.8636V113H807.77ZM863.168 114.091C858.44 114.091 854.293 112.966 850.724 110.716C847.179 108.466 844.406 105.318 842.406 101.273C840.429 97.2273 839.44 92.5 839.44 87.0909C839.44 81.6364 840.429 76.875 842.406 72.8068C844.406 68.7386 847.179 65.5795 850.724 63.3295C854.293 61.0795 858.44 59.9545 863.168 59.9545C867.895 59.9545 872.031 61.0795 875.577 63.3295C879.145 65.5795 881.918 68.7386 883.895 72.8068C885.895 76.875 886.895 81.6364 886.895 87.0909C886.895 92.5 885.895 97.2273 883.895 101.273C881.918 105.318 879.145 108.466 875.577 110.716C872.031 112.966 867.895 114.091 863.168 114.091ZM863.168 106.864C866.759 106.864 869.713 105.943 872.031 104.102C874.349 102.261 876.065 99.8409 877.179 96.8409C878.293 93.8409 878.849 90.5909 878.849 87.0909C878.849 83.5909 878.293 80.3295 877.179 77.3068C876.065 74.2841 874.349 71.8409 872.031 69.9773C869.713 68.1136 866.759 67.1818 863.168 67.1818C859.577 67.1818 856.622 68.1136 854.304 69.9773C851.986 71.8409 850.27 74.2841 849.156 77.3068C848.043 80.3295 847.486 83.5909 847.486 87.0909C847.486 90.5909 848.043 93.8409 849.156 96.8409C850.27 99.8409 851.986 102.261 854.304 104.102C856.622 105.943 859.577 106.864 863.168 106.864ZM918.949 114.091C914.585 114.091 910.733 112.989 907.392 110.784C904.051 108.557 901.438 105.42 899.551 101.375C897.665 97.3068 896.722 92.5 896.722 86.9545C896.722 81.4545 897.665 76.6818 899.551 72.6364C901.438 68.5909 904.063 65.4659 907.426 63.2614C910.79 61.0568 914.676 59.9545 919.085 59.9545C922.494 59.9545 925.188 60.5227 927.165 61.6591C929.165 62.7727 930.688 64.0455 931.733 65.4773C932.801 66.8864 933.631 68.0455 934.222 68.9545H934.903V43.1818H942.949V113H935.176V104.955H934.222C933.631 105.909 932.79 107.114 931.699 108.568C930.608 110 929.051 111.284 927.028 112.42C925.006 113.534 922.313 114.091 918.949 114.091ZM920.04 106.864C923.267 106.864 925.994 106.023 928.222 104.341C930.449 102.636 932.142 100.284 933.301 97.2841C934.46 94.2614 935.04 90.7727 935.04 86.8182C935.04 82.9091 934.472 79.4886 933.335 76.5568C932.199 73.6023 930.517 71.3068 928.29 69.6705C926.063 68.0114 923.313 67.1818 920.04 67.1818C916.631 67.1818 913.79 68.0568 911.517 69.8068C909.267 71.5341 907.574 73.8864 906.438 76.8636C905.324 79.8182 904.767 83.1364 904.767 86.8182C904.767 90.5455 905.335 93.9318 906.472 96.9773C907.631 100 909.335 102.409 911.585 104.205C913.858 105.977 916.676 106.864 920.04 106.864ZM991.801 91.5909V60.6364H999.847V113H991.801V104.136H991.256C990.028 106.795 988.119 109.057 985.528 110.92C982.938 112.761 979.665 113.682 975.71 113.682C972.438 113.682 969.528 112.966 966.983 111.534C964.438 110.08 962.438 107.898 960.983 104.989C959.528 102.057 958.801 98.3636 958.801 93.9091V60.6364H966.847V93.3636C966.847 97.1818 967.915 100.227 970.051 102.5C972.21 104.773 974.96 105.909 978.301 105.909C980.301 105.909 982.335 105.398 984.403 104.375C986.494 103.352 988.244 101.784 989.653 99.6705C991.085 97.5568 991.801 94.8636 991.801 91.5909ZM1035.86 114.091C1030.95 114.091 1026.72 112.932 1023.17 110.614C1019.63 108.295 1016.9 105.102 1014.99 101.034C1013.08 96.9659 1012.13 92.3182 1012.13 87.0909C1012.13 81.7727 1013.11 77.0795 1015.06 73.0114C1017.04 68.9205 1019.79 65.7273 1023.31 63.4318C1026.86 61.1136 1030.99 59.9545 1035.72 59.9545C1039.4 59.9545 1042.72 60.6364 1045.67 62C1048.63 63.3636 1051.05 65.2727 1052.93 67.7273C1054.82 70.1818 1055.99 73.0455 1056.45 76.3182H1048.4C1047.79 73.9318 1046.42 71.8182 1044.31 69.9773C1042.22 68.1136 1039.4 67.1818 1035.86 67.1818C1032.72 67.1818 1029.97 68 1027.61 69.6364C1025.26 71.25 1023.43 73.5341 1022.12 76.4886C1020.82 79.4205 1020.17 82.8636 1020.17 86.8182C1020.17 90.8636 1020.81 94.3864 1022.08 97.3864C1023.38 100.386 1025.2 102.716 1027.54 104.375C1029.9 106.034 1032.67 106.864 1035.86 106.864C1037.95 106.864 1039.84 106.5 1041.55 105.773C1043.25 105.045 1044.7 104 1045.88 102.636C1047.06 101.273 1047.9 99.6364 1048.4 97.7273H1056.45C1055.99 100.818 1054.87 103.602 1053.07 106.08C1051.3 108.534 1048.95 110.489 1046.01 111.943C1043.11 113.375 1039.72 114.091 1035.86 114.091ZM1090.98 60.6364V67.4545H1063.84V60.6364H1090.98ZM1071.75 48.0909H1079.8V98C1079.8 100.273 1080.13 101.977 1080.79 103.114C1081.47 104.227 1082.33 104.977 1083.38 105.364C1084.45 105.727 1085.57 105.909 1086.75 105.909C1087.64 105.909 1088.37 105.864 1088.93 105.773C1089.5 105.659 1089.96 105.568 1090.3 105.5L1091.93 112.727C1091.39 112.932 1090.63 113.136 1089.65 113.341C1088.67 113.568 1087.43 113.682 1085.93 113.682C1083.66 113.682 1081.43 113.193 1079.25 112.216C1077.09 111.239 1075.3 109.75 1073.87 107.75C1072.46 105.75 1071.75 103.227 1071.75 100.182V48.0909ZM1139.24 72.3636L1132.01 74.4091C1131.55 73.2045 1130.88 72.0341 1130 70.8977C1129.13 69.7386 1127.95 68.7841 1126.45 68.0341C1124.95 67.2841 1123.03 66.9091 1120.69 66.9091C1117.49 66.9091 1114.82 67.6477 1112.68 69.125C1110.57 70.5795 1109.51 72.4318 1109.51 74.6818C1109.51 76.6818 1110.24 78.2614 1111.69 79.4205C1113.14 80.5795 1115.42 81.5455 1118.51 82.3182L1126.28 84.2273C1130.96 85.3636 1134.45 87.1023 1136.75 89.4432C1139.04 91.7614 1140.19 94.75 1140.19 98.4091C1140.19 101.409 1139.33 104.091 1137.6 106.455C1135.89 108.818 1133.51 110.682 1130.44 112.045C1127.37 113.409 1123.8 114.091 1119.74 114.091C1114.39 114.091 1109.97 112.932 1106.47 110.614C1102.97 108.295 1100.76 104.909 1099.83 100.455L1107.46 98.5455C1108.19 101.364 1109.57 103.477 1111.59 104.886C1113.63 106.295 1116.3 107 1119.6 107C1123.35 107 1126.33 106.205 1128.53 104.614C1130.76 103 1131.87 101.068 1131.87 98.8182C1131.87 97 1131.24 95.4773 1129.96 94.25C1128.69 93 1126.74 92.0682 1124.1 91.4545L1115.37 89.4091C1110.58 88.2727 1107.05 86.5114 1104.8 84.125C1102.58 81.7159 1101.46 78.7045 1101.46 75.0909C1101.46 72.1364 1102.29 69.5227 1103.95 67.25C1105.63 64.9773 1107.92 63.1932 1110.8 61.8977C1113.71 60.6023 1117.01 59.9545 1120.69 59.9545C1125.87 59.9545 1129.94 61.0909 1132.89 63.3636C1135.87 65.6364 1137.99 68.6364 1139.24 72.3636Z" fill="black"/>
</svg>
